<svg width="1280" height="360" viewBox="0 0 1280 360" fill="none" xmlns="http://www.w3.org/2000/svg">
  <defs>
    <linearGradient id="paper" x1="72" y1="28" x2="1210" y2="340" gradientUnits="userSpaceOnUse">
      <stop stop-color="#F8F3EA"/>
      <stop offset="1" stop-color="#F3EBDD"/>
    </linearGradient>
    <linearGradient id="green" x1="890" y1="68" x2="1185" y2="298" gradientUnits="userSpaceOnUse">
      <stop stop-color="#3F5D4A"/>
      <stop offset="1" stop-color="#7F927A"/>
    </linearGradient>
    <pattern id="grid" width="28" height="28" patternUnits="userSpaceOnUse">
      <path d="M28 0H0V28" stroke="#7F927A" stroke-opacity=".18" stroke-width="1"/>
    </pattern>
    <filter id="shadow" x="-20%" y="-30%" width="140%" height="160%">
      <feDropShadow dx="0" dy="10" stdDeviation="18" flood-color="#29231F" flood-opacity=".09"/>
    </filter>
  </defs>

  <rect x="8" y="8" width="1264" height="344" rx="28" fill="url(#paper)" stroke="#D8CBB9"/>
  <rect x="8" y="8" width="1264" height="344" rx="28" fill="url(#grid)"/>
  <path d="M8 110V36C8 20.536 20.536 8 36 8H540L420 110H8Z" fill="#E9E4D8" fill-opacity=".82"/>
  <rect x="72" y="71" width="52" height="5" rx="2.5" fill="#B89365"/>

  <text x="72" y="144" fill="#29231F" font-family="Inter,Segoe UI,Arial,sans-serif" font-size="58" font-weight="720" letter-spacing="-1.8">Dimas Mérida</text>
  <text x="74" y="195" fill="#3F5D4A" font-family="Inter,Segoe UI,Arial,sans-serif" font-size="25" font-weight="600">Software Architect · Product Builder · App Developer</text>
  <text x="74" y="244" fill="#61594D" font-family="Inter,Segoe UI,Arial,sans-serif" font-size="18" font-weight="500">Scalable systems  /  Developer tools  /  Modern applications</text>

  <g transform="translate(74 278)">
    <rect width="118" height="32" rx="16" fill="#E5E8DF" stroke="#AEBBA8"/>
    <circle cx="17" cy="16" r="4" fill="#3F5D4A"/>
    <text x="29" y="21" fill="#344C3D" font-family="Inter,Segoe UI,Arial,sans-serif" font-size="13" font-weight="650">ARCHITECTURE</text>
  </g>
  <g transform="translate(204 278)">
    <rect width="112" height="32" rx="16" fill="#EBE5DA" stroke="#CDBA9D"/>
    <circle cx="17" cy="16" r="4" fill="#B89365"/>
    <text x="29" y="21" fill="#61513D" font-family="Inter,Segoe UI,Arial,sans-serif" font-size="13" font-weight="650">ENGINEERING</text>
  </g>
  <g transform="translate(328 278)">
    <rect width="94" height="32" rx="16" fill="#ECE9E0" stroke="#C8C3B6"/>
    <circle cx="17" cy="16" r="4" fill="#7F927A"/>
    <text x="29" y="21" fill="#4E5D4B" font-family="Inter,Segoe UI,Arial,sans-serif" font-size="13" font-weight="650">PRODUCTS</text>
  </g>

  <g filter="url(#shadow)">
    <rect x="846" y="68" width="330" height="224" rx="24" fill="#F8F3EA" stroke="#D8CBB9"/>
  </g>
  <rect x="872" y="94" width="88" height="42" rx="10" fill="#E5E8DF" stroke="#7F927A"/>
  <rect x="1028" y="94" width="120" height="42" rx="10" fill="#F3EBDD" stroke="#C8BDAE"/>
  <rect x="872" y="224" width="114" height="42" rx="10" fill="#F3EBDD" stroke="#C8BDAE"/>
  <rect x="1036" y="224" width="112" height="42" rx="10" fill="#E5E8DF" stroke="#7F927A"/>
  <rect x="963" y="153" width="96" height="54" rx="12" fill="url(#green)"/>
  <circle cx="985" cy="180" r="6" fill="#F3EBDD"/>
  <path d="M999 180H1038" stroke="#F3EBDD" stroke-width="5" stroke-linecap="round"/>
  <path d="M960 115H989V153M1088 136V153H1059M986 245H1010V207M1092 224V207H1059" stroke="#B89365" stroke-width="2"/>
  <circle cx="989" cy="153" r="4" fill="#3F5D4A"/>
  <circle cx="1059" cy="153" r="4" fill="#3F5D4A"/>
  <circle cx="1010" cy="207" r="4" fill="#B89365"/>
  <circle cx="1059" cy="207" r="4" fill="#B89365"/>
  <text x="887" y="120" fill="#344C3D" font-family="Inter,Segoe UI,Arial,sans-serif" font-size="11" font-weight="700">DOMAIN</text>
  <text x="1045" y="120" fill="#61594D" font-family="Inter,Segoe UI,Arial,sans-serif" font-size="11" font-weight="700">APPLICATION</text>
  <text x="889" y="250" fill="#61594D" font-family="Inter,Segoe UI,Arial,sans-serif" font-size="11" font-weight="700">ADAPTERS</text>
  <text x="1054" y="250" fill="#344C3D" font-family="Inter,Segoe UI,Arial,sans-serif" font-size="11" font-weight="700">SERVICES</text>
</svg>